<?xml version="1.0" encoding="utf-8"?>
<!-- Generator: Adobe Illustrator 26.0.1, SVG Export Plug-In . SVG Version: 6.00 Build 0)  -->
<svg version="1.1" id="Calque_1" xmlns="http://www.w3.org/2000/svg" xmlns:xlink="http://www.w3.org/1999/xlink" x="0px" y="0px"
	 viewBox="0 0 429.5 464.5" style="enable-background:new 0 0 429.5 464.5;" xml:space="preserve">
<style type="text/css">
	.st0{fill:#F39200;}
	.st1{fill:#005DA4;}
	.st2{fill:#F0AF7B;}
	.st3{fill:#244872;}
</style>
<g id="Logo">
	<path class="st0" d="M157.4,436.5c0,0-12.1-62.1,28.3-98.3c25.7-33.7,13.5-41.9-1.5-80.9c-15.1-39.3-5.2-46.5-3.7-46.9
		c0.8-0.2,4.5,9.8,7.9,17.5c2.8,6.5,6.9,15.2,8.9,19.2c6.7,13.3,20,44,11.2,79C197.7,369.7,166.1,381.7,157.4,436.5z"/>
	<path class="st1" d="M225.3,226.1c-0.7-6.8-3-16.8-11-17.8c-0.5,12.7-1.9,26.5-7,38.2c-1.1,2.6-8.4,13.4-10.3,15.6
		c-4.3,4.9-8.2,7.5-12.5,12.4c-8.8,10.2-12.6,22.8-12.4,36.1c0.3,13.8,4.2,26.9,8.3,39.9c4.7,15.2,8,30.8,9.5,46.6
		c1.2,13.5,0.4,27.1,1.6,40.5c1.2-3.9,2.9-7.6,4.2-11.4c2.3-6.6,4.1-13.4,5.4-20.2c2.7-13.7,3.6-27.8,2.2-41.7
		c-1.1-10.9-4.5-21-6.8-31.7c-2.7-12.6-3.8-25.5,4-36.5c3.5-4.9,7.5-9.4,10.9-14.4c3.5-5.1,6.3-10.6,8.4-16.5
		C224.2,253.1,226.7,239.3,225.3,226.1C225.1,224.8,225.4,227.5,225.3,226.1z"/>
	<path class="st0" d="M218.5,140.3c-0.7-6.4-4-12.3-9.6-15.7c-5-3-11.7-4.8-17.4-3.1c-13.1,3.9-14.7,18.6-12.6,29.5
		c0.6,3.2,2.2,8.1,3.4,11c0.8,2,2.1,5.2,2.5,7.3c1.1,5.7-4.8,10-8.6,13.2c-10.4,8.7-21,21.9-26.2,32.8c-7.3,15.2-10.9,29.4-8.9,46.4
		c1,8.3,3.7,16.3,8,23.5c2.9,4.8,6.7,9,10.3,13.2c-7.4-23.3-9.4-50.1,0.5-73c4.9-11.3,13.8-21.1,18.6-25.4c3.7-3.3,8.5-7.4,10.2-9.7
		c3.6-5.1,5.9-10.7,5.1-17.1c-0.7-5.1-2.6-9.9-3.4-14.9c-0.8-5.2-1.6-9.9-1.5-15.2c0.1-4.8,1.7-9.9,6.7-11.3
		c3.9-1.1,7.5-0.6,10.7,1.8c2.9,2.2,4.5,5.8,4.9,9.4c0.2,2.2,0.1,4.4-0.3,6.6c-0.2,1.2-0.6,2.5-1,3.6c-0.1,0.4-0.8,1.3-0.6,1.8
		c0.4,1.4,1.2,3.6,2.9,3.8c2.3,0.3,3.5-3,4.2-4.6C218.1,149.7,219,145.2,218.5,140.3C218.2,137.7,218.8,142.9,218.5,140.3z"/>
	<path class="st0" d="M301.8,81c-0.4-1.2-0.7-2.4-1.1-3.6c-2.6,23-11.3,46.9-27.9,63.6c-8.9,8.9-20,15.2-32.3,18
		c-2.6,0.6-4.6,1.2-6.9,2.6c-2.6,1.7-4.9,3.8-6.7,6.3c-3.8,5.1-5.7,11.6-6,17.9c-0.1,2.4-0.5,6.5,1.1,8.6c2.1,2.2,2.1-3.7,2.1-4.4
		c0-2-0.3-4,0-6c0.5-3,2.5-5.2,5.1-6.7c5.6-3.1,12.4-4.1,18.4-6.1c6.1-2.1,11.8-5.4,17.1-9c21.3-14.3,40.1-36.7,39.9-63.6
		C304.5,92.6,303.5,86.7,301.8,81C301.8,81,303.6,86.9,301.8,81z"/>
	<g>
		<path class="st2" d="M259.3,404.9c0,0-16.8-9.1-29,5.7c-12.2,14.8-10.6,15.5-20,22.7c0,0,3.4-0.9,23.6-17
			C246,405.2,253.8,404.5,259.3,404.9z"/>
		<path class="st2" d="M248.8,410.5c-12.6,5.4-22.6,22.6-41.7,27.6c0,0,24.6,1.7,57.8-19.7c0,0,4.2-2.9,14.8-5.1
			C279.8,413.3,261.4,402.9,248.8,410.5z"/>
		<path class="st2" d="M271,421.8c0,0-9.5,6.4-28.1,14c-55.3,18.9-100.3-26.4-100.3-26.4c37.1,23,52.9,17.4,62.3,11.1
			c9.5-6.3-0.2-12.3-9.3-13.8c-9-1.5-23.3-14.9-30.3-21.6c-8.7-8.5-41.6-32.8-41.6-32.8c-3.2-2.4-8-4.6-13.6-6.2
			c-18.2-5.9-56.6-11.9-80,29.7c0,0,21.1,6,43.6,33.7c13.7,18.1,32.1,28.9,32.1,28.9c132.1,61.8,179.1-5.3,187.2-12.3
			C285.6,414.4,271,421.8,271,421.8z"/>
	</g>
	<g>
		<path class="st3" d="M303,391l-1.9,1l-1.3-2.5l8.8-4.5c3.5-1.8,6.9-1.1,8.6,2.2c1.1,2.2,0.7,4.3-0.3,5.7l0,0.1
			c2.5-0.5,4.7,1,5.9,3.2c2,3.9,0,7.3-3.6,9.2L314,408c-1.3,0.7-2.1,0.4-2.8-0.9L303,391z M313,393.6c1.8-0.9,2.3-2.8,1.4-4.6
			s-2.6-2.5-4.5-1.5l-3.9,2l3.1,6.1L313,393.6z M314.4,404.6l3.6-1.9c2.2-1.1,2.7-3.1,1.7-5.2c-1.1-2.1-3.1-2.8-5.2-1.8l-4.3,2.2
			l3.2,6.3C313.7,404.7,314,404.9,314.4,404.6z"/>
		<path class="st3" d="M323.5,388.1c-0.3-0.4-0.6-0.5-1-0.2l-1.1,0.7l-1.4-2.3l2.5-1.6c1.2-0.8,2.1-0.6,2.8,0.5l0.5,0.9
			c0.3,0.5,0.5,1,0.5,1l0.1,0c-0.6-2.5,0-5,2.1-6.4c0.4-0.2,0.8-0.4,0.8-0.4l1.6,2.6c0,0-0.4,0.1-0.9,0.4c-1.7,1.1-2.5,3.3-1.9,5.7
			c0.2,1,0.7,1.9,1.2,2.7l3.5,5.7l-2.7,1.7L323.5,388.1z"/>
		<path class="st3" d="M328.6,373l2.3-1.6l1.9,2.7l-2.3,1.6L328.6,373z M334.3,381.1c-0.3-0.4-0.6-0.4-1-0.2l-1.1,0.8l-1.5-2.2
			l2.5-1.8c1.2-0.8,2.1-0.7,2.9,0.5l6.3,9c0.3,0.4,0.6,0.4,1,0.2l1.1-0.8l1.5,2.2l-2.5,1.8c-1.2,0.8-2.1,0.7-2.9-0.5L334.3,381.1z"
			/>
		<path class="st3" d="M346.5,382.7c0,0,3,0.7,5.4-1.2c1.2-1,1.8-2.3,0.9-3.4c-1.9-2.3-8.6,3.6-12-0.6c-2-2.5-0.7-5.3,1.9-7.4
			c1.5-1.2,4.6-2.9,6.2-0.9l1,1.2l-2.2,1.8l-0.5-0.6c-0.6-0.8-2-0.2-2.8,0.5c-1.4,1.2-2,2.4-1.2,3.4c2,2.4,8.5-3.7,12,0.6
			c1.8,2.3,1,5.4-1.7,7.5c-3.4,2.8-6.9,1.9-6.9,1.9L346.5,382.7z"/>
		<path class="st3" d="M358.4,372.8c0,0,3.1,0.4,5.3-1.6c1.1-1,1.6-2.5,0.6-3.5c-2-2.1-8.3,4.2-12,0.4c-2.2-2.3-1.1-5.3,1.3-7.6
			c1.5-1.4,4.4-3.2,6.1-1.4l1.1,1.1l-2.1,1.9l-0.6-0.6c-0.7-0.7-2,0-2.8,0.7c-1.4,1.3-1.8,2.6-0.9,3.5c2.1,2.3,8.2-4.4,12-0.4
			c2,2.1,1.4,5.3-1.1,7.6c-3.2,3-6.8,2.4-6.8,2.4L358.4,372.8z"/>
		<path class="st3" d="M371.2,351.9l0.5-0.5l-0.1-0.1c-2.2-1.9-3.6-1.8-5.4,0.1c-0.5,0.6-1.6,2.1-0.9,2.9l0.7,0.6l-2,2.2l-1.2-1.1
			c-2-1.8,0.4-5.1,1.5-6.3c3.5-4,6.6-3.2,9.3-0.8l5.2,4.7c0.4,0.3,0.7,0.3,1-0.1l0.9-1l2,1.8l-2,2.2c-1,1.1-1.9,1-2.8,0.3
			c-0.4-0.4-0.7-0.7-0.7-0.7l0,0c0,0,1.5,3.1-1.1,6.1c-1.9,2.1-5,3-7.5,0.8C364.8,359.5,369.4,353.9,371.2,351.9z M374.8,360
			c1.8-2,0.8-5.1-1-6.8l-0.4-0.4l-0.5,0.6c-1.6,1.8-4.3,5-2.1,7.1C371.8,361.4,373.4,361.5,374.8,360z"/>
		<path class="st3" d="M376.4,334.8c1.2-1.6,4.2-4.3,6.4-2.6l1.4,1l-1.7,2.3l-0.7-0.5c-0.9-0.7-2.5,0.5-3.2,1.5
			c-1.9,2.6-1.4,6,1.4,8c3,2.2,6.3,1.3,8.1-1.2c1.8-2.5,1.2-5.5,1.2-5.5l2.6,0.2c0,0,0.9,3.6-1.7,7.1c-3.1,4.1-8.2,4.9-12.1,1.9
			C374.2,344.1,373.2,339,376.4,334.8z"/>
		<path class="st3" d="M387.1,330.3l5-8.1l2.4,1.5l-5,8.1L387.1,330.3z"/>
		<path class="st3" d="M388.1,302.7c2.9-6,9.7-8.5,15.7-5.6c2.6,1.2,4.5,3.3,5.6,5.7l3.5-1.3l1,2.7l-3.5,1.2
			c0.6,2.5,0.2,5.1-0.9,7.5c-2.9,6-9.9,8.3-15.9,5.4C387.6,315.5,385.2,308.7,388.1,302.7z M406.7,311.7c1.3-2.7,0.7-5.1,0.7-5.1
			l-3.3,1.2l-1.1-2.7l3.4-1.1c-0.8-1.6-2.3-3-4.1-3.8c-4.5-2.2-9.4-0.4-11.5,3.9c-2,4.2-0.3,9.1,4.2,11.3
			C399.5,317.5,404.7,315.9,406.7,311.7z"/>
		<path class="st3" d="M403.8,292.6c-0.5-0.2-0.8,0-0.9,0.5l-0.4,1.3l-2.5-0.9l1-2.9c0.5-1.4,1.3-1.8,2.6-1.4l7.4,2.5
			c2.2,0.7,4,0.9,4.9-1.6c1.1-3.2-1.1-6-4.1-7.1l-7.3-2.5l1-3l12.3,4.2c0.5,0.2,0.8,0,0.9-0.5l0.4-1.3l2.6,0.9l-1,2.9
			c-0.5,1.3-1.3,1.8-2.4,1.4l-0.6-0.2c-0.5-0.2-0.9-0.3-0.9-0.3l0,0.1c1.3,1.2,2.7,3.9,1.6,6.9c-1.2,3.5-3.6,4.7-7.8,3.3
			L403.8,292.6z"/>
		<path class="st3" d="M400.7,269.3l0.7-2.8l3.2,0.8l-0.7,2.8L400.7,269.3z M410.3,271.8c-0.5-0.1-0.8,0.1-0.9,0.5l-0.3,1.3
			l-2.6-0.6l0.8-3c0.4-1.4,1.1-1.9,2.5-1.5l10.6,2.6c0.5,0.1,0.8-0.1,0.9-0.5l0.3-1.3l2.6,0.6l-0.8,3c-0.4,1.4-1.1,1.9-2.5,1.5
			L410.3,271.8z"/>
		<path class="st3" d="M412.7,261.9c-0.5-0.1-0.8,0.1-0.8,0.6l-0.2,1.3l-2.7-0.4l0.5-3c0.2-1.4,0.9-2,2.1-1.8l0.6,0.1
			c0.5,0.1,0.9,0.2,0.9,0.2l0-0.1c-1.3-0.9-3.3-3.2-2.7-6.7c0.6-3.9,3-5.2,7.1-4.6l7,1.1c0.5,0.1,0.8-0.1,0.8-0.6l0.2-1.3l2.7,0.4
			l-0.5,3.1c-0.2,1.4-0.9,2-2.4,1.7l-7.6-1.2c-2.3-0.4-4.1-0.2-4.6,2.4c-0.4,2.5,0.9,4.8,3.1,5.8c0.6,0.3,1.3,0.5,2.1,0.6l7.6,1.2
			l-0.5,3.1L412.7,261.9z"/>
		<path class="st3" d="M412.2,234.2c0.1-2,1.2-5.9,4-5.7l1.7,0.1l-0.2,2.9l-0.9,0c-1.2-0.1-1.8,1.8-1.9,3c-0.2,3.2,2.1,5.8,5.5,6
			c3.7,0.2,6-2.4,6.2-5.4c0.2-3.1-2-5.2-2-5.2l2.3-1.2c0,0,2.7,2.5,2.4,6.9c-0.3,5.2-4.2,8.5-9.1,8.2
			C415.5,243.3,411.9,239.5,412.2,234.2z"/>
		<path class="st3" d="M406.2,217l-0.1-3.2l4.2,2.9l0.1,2.5L406.2,217z M412.3,217.8c-0.2-4.6,3.2-7.2,7.5-7.4c0.4,0,1.3,0,1.3,0
			l0.4,12c3.5-0.3,5.4-2.9,5.3-5.9c-0.1-2.8-2.1-4.7-2.1-4.7l2.2-1.4c0,0,2.5,2.4,2.6,6.2c0.2,5.2-3.4,8.9-8.3,9
			C416,225.9,412.5,222.5,412.3,217.8z M418.9,213.7c-2.7,0.2-4.1,2-4.1,4c0.1,2.4,1.6,4.3,4.4,4.7L418.9,213.7z"/>
	</g>
	<g>
		<path class="st3" d="M11.9,297.2c-1.8-5.1-3.2-15.9,3.6-18.3l4.4-1.6l2.3,6.7l-2.2,0.8c-2.9,1-2.6,6.3-1.4,9.8
			c2.5,7.1,9.6,11,17.9,8.1c7.8-2.7,12.1-10.7,9.6-17.9c-2.6-7.5-9.5-10.2-9.5-10.2l3.9-5.7c0,0,8.9,3.4,12.5,13.7
			c4.3,12.2-2,23.7-13.8,27.9C27.8,314.4,16,308.8,11.9,297.2z"/>
		<path class="st3" d="M25.3,248.7l-0.1-0.9l-0.2,0c-4.3,0.6-5.7,2.5-5.1,6.4c0.2,1.4,0.9,4,2.6,3.7l1.6-0.2l1,7l-3.2,0.4
			c-5.6,0.8-7.3-7.1-7.7-10.2c-1.4-10,3.5-13.7,10.2-14.6l11.2-1.5c0.8-0.1,1.2-0.6,1.1-1.5l-0.3-2.4l6.3-0.9l0.9,6.7
			c0.4,2.8-1,4-2.8,4.3c-0.8,0.1-1.3,0.1-1.3,0.1l0,0.1c0,0,5.6,1.6,6.6,8.4c0.7,5.4-1.9,10.7-8,11.6
			C28.5,266.5,26,253.6,25.3,248.7z M39.8,252.6c-0.6-4-5.2-6.3-8.9-5.8l-0.7,0.1l0.2,1.3c0.5,3.9,1.9,10,6.1,9.5
			C38.6,257.4,40.3,255.6,39.8,252.6z"/>
		<path class="st3" d="M7.9,227.4c-0.9,0-1.3,0.4-1.4,1.2L6.4,231L0,230.7l0.3-7.2c0.1-2.8,1.4-4,4.2-3.9l8.8,0.4
			c1.5,0.1,2.6,0.2,2.6,0.2l0-0.1c0,0-4.1-2.9-3.8-9.3c0.4-8.2,7.2-13.1,16.6-12.7c9.6,0.5,15.6,6.7,15.2,14.7
			c-0.3,6.3-4.7,8.8-4.7,8.8v0.1c0,0,0.8-0.1,2,0l1.6,0.1l-0.3,7.1L7.9,227.4z M37.5,213.9c0.2-4.1-3-7.8-9-8.1
			c-5.8-0.3-9.7,2.6-9.9,7.1c-0.2,3.9,2.5,7.8,9.2,8.1C32.5,221.3,37.3,219,37.5,213.9z"/>
		<path class="st3" d="M4.8,181.1l1.4-6.4l6.8,1.4l-1.4,6.4L4.8,181.1z M23.9,185.6c-0.9-0.2-1.4,0.2-1.6,1l-0.5,2.3l-6.3-1.3
			l1.5-7.1c0.6-2.7,2.1-3.6,4.8-3.1l18.2,3.9c0.8,0.2,1.4-0.2,1.6-1l0.5-2.3l6.2,1.3l-1.5,7.1c-0.6,2.7-2,3.7-4.8,3.1L23.9,185.6z"
			/>
		<path class="st3" d="M29.1,163.2c-0.8-0.3-1.4,0-1.7,0.8l-0.9,2.2l-6-2.3l2.5-6.5c1-2.5,2.6-3.3,4.6-2.5l0.8,0.3
			c0.6,0.2,1.2,0.6,1.2,0.6l0-0.1c-1.9-2.1-4.2-6.6-2-12.3c2.4-6.3,7.1-8.6,14.6-5.7l11,4.3c0.8,0.3,1.4,0,1.7-0.8L56,139l5.9,2.3
			l-2.6,6.7c-1,2.7-2.6,3.3-5.2,2.3l-13-5.1c-3.4-1.3-6.1-1.4-7.5,2.2c-1.5,3.8-0.2,7.5,2.8,9.9c1,0.8,2.2,1.5,3.6,2l13,5.1l-2.7,7
			L29.1,163.2z"/>
		<path class="st3" d="M45,110.1c4.6-7.4,12.6-8,19.4-3.8c0.8,0.5,2.3,1.6,2.3,1.6l-11.1,17.8c4.9,2.3,9.3,0.5,11.8-3.4
			c2.6-4.1,1.6-9,1.6-9l6.1,0.1c0,0,1.4,6.4-2.6,12.8c-5.4,8.5-14.8,10-22.1,5.4C42.4,126.6,40.2,117.8,45,110.1z M58.2,111.6
			c-3.1-1.8-6.6-1-8.2,1.6c-2.1,3.3-1.6,6.8,1.2,9.6L58.2,111.6z"/>
		<path class="st3" d="M64.6,94.1l-2.6,3l-4.6-3.9l2.7-3.1l-6.3-5.4l4.8-5.6l6.3,5.4l4.5-5.2l4.6,3.9l-4.5,5.2l9.3,8
			c3.8,3.2,6.9,0.7,8.3-0.9c0.5-0.6,0.8-1.1,0.8-1.1l5,4.3c0,0-0.5,0.8-1.4,1.9c-2.8,3.2-9.2,8.8-16.9,2.2L64.6,94.1z"/>
		<path class="st3" d="M99.6,51.7c5.4-3.8,9.3-2.1,9.3-2.1l0.1-0.1c0,0-0.5-0.6-1.1-1.4l-3.1-4.4c-0.5-0.7-1.1-0.8-1.8-0.3l-1.9,1.4
			l-3.7-5.2l5.9-4.2c2.3-1.6,4-1.3,5.6,1l17.7,24.9c0.5,0.7,1.1,0.8,1.8,0.3l1.9-1.3l3.7,5.2l-5.7,4c-2.2,1.6-3.8,1.1-4.9-0.4
			c-0.4-0.5-0.7-0.9-0.7-0.9l-0.1,0.1c0,0,0.8,5.5-4.9,9.5c-6.7,4.8-14.8,2.5-20.2-5.2C91.9,64.8,93,56.3,99.6,51.7z M116.1,59.4
			c-2.7-3.8-7.4-6.2-11.5-3.3c-3.4,2.4-4.3,7.2-0.8,12.1c3.3,4.7,8,6,11.6,3.4C118.6,69.4,120,64.9,116.1,59.4z"/>
		<path class="st3" d="M115.7,27.2l6-3.2l2.3,13.6l-4.5,2.4L115.7,27.2z"/>
		<path class="st3" d="M146.8,25.7c8.6-3.4,17.9,0,21.4,8.7c3.4,8.7-1,17.5-9.6,20.9c-8.6,3.4-17.9,0-21.3-8.7
			C133.8,37.9,138.2,29.1,146.8,25.7z M156.2,49.3c4.6-1.8,7-6.9,4.9-12.2c-2.1-5.2-7.3-7.3-11.9-5.5c-4.5,1.8-6.9,6.9-4.9,12.1
			C146.4,49,151.6,51.1,156.2,49.3z"/>
		<path class="st3" d="M178,37.8c0,0,4.7,3.6,9.8,2.5c2.3-0.5,3.8-1.8,3.4-3.8c-0.9-4.2-16.6-0.9-18.6-10.5c-1.2-6,3.6-9.8,9.7-11.1
			c4-0.8,10.7-0.8,11.7,4l0.6,3.1l-6.5,1.4l-0.3-1.5c-0.3-1.4-2.5-1.7-4.2-1.3c-2.6,0.6-4.2,1.8-3.9,3.6c1,4.7,16.6,0.4,18.6,10.4
			c1.2,5.6-3.1,10.1-9.5,11.5c-8.2,1.7-13.5-2.7-13.5-2.7L178,37.8z"/>
		<path class="st3" d="M203.9,18.4l-3.9,0.3l-0.5-6l4.1-0.3L203,4.1l7.4-0.6l0.6,8.3l6.9-0.5l0.5,6l-6.9,0.5l1,12.2
			c0.4,5,4.4,5.4,6.5,5.2c0.8-0.1,1.4-0.2,1.4-0.2l0.5,6.6c0,0-0.9,0.2-2.3,0.4c-4.2,0.3-12.7-0.3-13.5-10.4L203.9,18.4z"/>
		<path class="st3" d="M240.4,11c8.7,0.6,13,7.2,12.5,15.3c-0.1,0.9-0.4,2.8-0.4,2.8l-20.9-1.3c0.2,5.4,4,8.4,8.6,8.7
			c4.9,0.3,8.7-2.8,8.7-2.8l2.8,5.4c0,0-4.9,4.3-12.5,3.8c-10-0.7-15.8-8.3-15.3-16.9C224.5,16.6,231.3,10.4,240.4,11z M245.3,23.3
			c0.1-3.6-2.2-6.3-5.3-6.5c-3.9-0.2-6.8,1.9-7.8,5.7L245.3,23.3z M242.5,0l7.3,0.5L243,8.2l-5.5-0.4L242.5,0z"/>
		<path class="st3" d="M279.1,17.3c9,2.3,14.5,10.6,12.2,19.6c-2.3,9.1-11.1,13.6-20.1,11.2c-8.9-2.3-14.5-10.5-12.1-19.6
			C261.3,19.5,270.1,15,279.1,17.3z M272.7,41.9c4.8,1.2,9.7-1.4,11.1-6.9c1.4-5.4-1.6-10.2-6.4-11.4c-4.7-1.2-9.7,1.5-11.1,6.9
			C265,35.9,268,40.7,272.7,41.9z"/>
		<path class="st3" d="M300.3,32.5c0.4-0.8,0.1-1.4-0.6-1.7l-2.2-1l2.7-5.8l6.1,2.8c2.5,1.2,2.9,2.8,2.2,4.3
			c-0.3,0.7-0.5,1.1-0.5,1.1l0.1,0.1c0,0,4.4-3.3,10.8-0.3c7.5,3.5,9.5,11.6,5.5,20.1c-4.1,8.8-12.1,11.9-19.4,8.5
			c-5.5-2.5-6.2-7.3-6.2-7.3l-0.1-0.1c0,0-0.3,1-1,2.4L292.5,67l-6.8-3.2L300.3,32.5z M306.6,54.2c3.8,1.8,8.4,0.2,11-5.3
			c2.5-5.2,1.2-9.9-2.8-11.8c-3.6-1.7-8.1-0.6-11,5.5C301.7,46.8,302,52.1,306.6,54.2z"/>
		<path class="st3" d="M347.1,63.1l0.8,0.6l0.1-0.2c2.5-3.5,2.1-5.8-1-8.1c-1.1-0.8-3.5-2.1-4.5-0.7l-0.9,1.3l-5.7-4.1l1.9-2.6
			c3.3-4.6,10.1-0.4,12.7,1.5c8.2,5.9,7.5,12,3.5,17.5l-6.6,9.2c-0.5,0.7-0.4,1.3,0.3,1.8l1.9,1.4l-3.7,5.2l-5.5-4
			c-2.3-1.6-2.2-3.5-1.2-5c0.5-0.6,0.8-1,0.8-1l-0.1-0.1c0,0-5,3-10.6-1c-4.4-3.2-6.4-8.8-2.8-13.8C332,53.1,343.1,60.2,347.1,63.1z
			 M334.2,70.9c3.3,2.4,8.1,0.6,10.3-2.4l0.4-0.6l-1.1-0.8c-3.2-2.3-8.6-5.5-11-2.1C331.6,66.7,331.7,69.1,334.2,70.9z"/>
		<path class="st3" d="M365.4,71.3l-2.8-2.7l4.2-4.3l3,2.8l5.8-6l5.3,5.1l-5.8,6l5,4.8l-4.2,4.3l-5-4.8l-8.5,8.8
			c-3.5,3.6-1.1,6.9,0.4,8.3c0.6,0.6,1.1,0.9,1.1,0.9l-4.6,4.8c0,0-0.8-0.5-1.8-1.5c-3-2.9-8.2-9.7-1.1-17L365.4,71.3z"/>
		<path class="st3" d="M390.4,81.8c0.7-0.5,0.8-1.2,0.2-1.8l-1.4-1.9l5.1-3.9l4.4,5.8c1.7,2.2,1.5,4-0.7,5.6l-8.5,6.4
			c-1.2,0.9-2.1,1.4-2.1,1.4l0.1,0.1c3.2-0.6,7.9,0.5,11.1,4.7c4.1,5.4,3.6,10.6-2.8,15.4l-9.5,7.2c-0.7,0.5-0.8,1.2-0.2,1.8
			l1.4,1.9l-5.1,3.9l-4.4-5.8c-1.7-2.2-1.5-3.9,0.8-5.6l11.1-8.4c3-2.2,4.3-4.6,2-7.6c-2.4-3.2-6.4-4.1-10-2.8
			c-1.2,0.4-2.3,1.1-3.4,2l-11.1,8.4l-4.6-6L390.4,81.8z"/>
		<path class="st3" d="M404.5,123c0.8-0.4,0.9-1,0.5-1.8l-1.1-2.1l5.7-3.1l3.4,6.3c1.3,2.5,0.8,4.1-1.7,5.4l-16.4,8.9
			c-0.7,0.4-0.9,1-0.5,1.8l1.1,2.1l-5.6,3l-3.4-6.3c-1.3-2.5-0.9-4.1,1.6-5.4L404.5,123z M421.9,114l3.1,5.8l-6.1,3.3l-3.1-5.8
			L421.9,114z"/>
		<path class="st3" d="M426.1,149.5c3.1,8.1-1.2,14.9-8.7,17.7c-0.8,0.3-2.7,0.8-2.7,0.8l-7.4-19.6c-4.8,2.4-6,7.1-4.4,11.4
			c1.7,4.6,6.2,6.8,6.2,6.8l-3.8,4.8c0,0-5.9-2.7-8.6-9.8c-3.6-9.4,1-17.9,9.1-20.9C414.5,137.4,422.9,141,426.1,149.5z
			 M416.9,159.1c3.4-1.4,4.8-4.6,3.7-7.5c-1.4-3.6-4.5-5.4-8.4-4.8L416.9,159.1z"/>
	</g>
</g>
</svg>
